<svg width="476" height="476" viewBox="0 0 476 476" fill="none" xmlns="http://www.w3.org/2000/svg">
<g clip-path="url(#clip0)">
<path d="M464.524 412.846L366.595 314.921C390.195 280.853 402.001 242.874 402.001 201.004C402.001 173.786 396.717 147.755 386.149 122.917C375.588 98.075 361.311 76.663 343.324 58.676C325.337 40.689 303.928 26.412 279.091 15.85C254.246 5.28501 228.217 0.00300598 200.999 0.00300598C173.783 0.00300598 147.752 5.28501 122.914 15.85C98.072 26.412 76.66 40.689 58.673 58.676C40.684 76.663 26.409 98.079 15.846 122.917C5.282 147.758 0 173.786 0 201.004C0 228.22 5.282 254.242 15.846 279.087C26.408 303.925 40.684 325.334 58.673 343.321C76.66 361.314 98.076 375.585 122.914 386.153C147.755 396.716 173.783 401.997 200.999 401.997C242.878 401.997 280.851 390.19 314.921 366.592L412.85 464.233C419.702 471.464 428.256 475.082 438.543 475.082C448.44 475.082 457.01 471.465 464.237 464.233C471.467 457.003 475.085 448.437 475.085 438.54C475.088 428.458 471.567 419.889 464.524 412.846ZM291.363 291.358C266.334 316.391 236.215 328.907 200.999 328.907C165.789 328.907 135.67 316.388 110.639 291.358C85.608 266.329 73.093 236.214 73.093 200.998C73.093 165.788 85.611 135.664 110.639 110.638C135.665 85.606 165.789 73.092 200.999 73.092C236.211 73.092 266.33 85.611 291.363 110.638C316.396 135.664 328.911 165.788 328.911 200.998C328.911 236.214 316.392 266.329 291.363 291.358Z" fill="white"/>
</g>
<defs>
<clipPath id="clip0">
<rect width="475.084" height="475.084" fill="white"/>
</clipPath>
</defs>
</svg>
