<svg height="512" viewBox="0 0 64 64" width="512" xmlns="http://www.w3.org/2000/svg"><path d="m57 23v-10a3.009 3.009 0 0 0 -3-3h-20a2.974 2.974 0 0 0 -2 .78 2.974 2.974 0 0 0 -2-.78h-20a3.009 3.009 0 0 0 -3 3v10a5 5 0 0 0 -5 5v25a1 1 0 0 0 1 1h58a1 1 0 0 0 1-1v-25a5 5 0 0 0 -5-5zm-48-10a1 1 0 0 1 1-1h20a1 1 0 0 1 1 1v13h2v-13a1 1 0 0 1 1-1h20a1 1 0 0 1 1 1v10.42a5.014 5.014 0 0 0 -3 4.58v4.18a3 3 0 0 0 -1-.18h-17a2.974 2.974 0 0 0 -2 .78 2.974 2.974 0 0 0 -2-.78h-17a3 3 0 0 0 -1 .18v-4.18a5.014 5.014 0 0 0 -3-4.58zm43 31v5h-40v-5zm-40-2v-7a1 1 0 0 1 1-1h17a1 1 0 0 1 1 1v7zm21 0v-7a1 1 0 0 1 1-1h17a1 1 0 0 1 1 1v7zm-29-14a3 3 0 0 1 6 0v21h-6zm56 24h-56v-1h56zm0-3h-6v-21a3 3 0 0 1 6 0z"/><path d="m19 19h2v2h-2z"/><path d="m19 23h2v2h-2z"/><path d="m21 21h2v2h-2z"/><path d="m17 21h2v2h-2z"/><path d="m43 19h2v2h-2z"/><path d="m43 23h2v2h-2z"/><path d="m45 21h2v2h-2z"/><path d="m41 21h2v2h-2z"/><path d="m31 28h2v2h-2z"/></svg>