<svg width="53" height="53" viewBox="0 0 53 53" fill="none" xmlns="http://www.w3.org/2000/svg">
<g clip-path="url(#clip0)">
<path d="M31.256 0H21.254C10.778 0 2.255 8.521 2.255 18.995V28.005C2.255 35.805 7.04801 42.815 14.255 45.67V51.511C14.255 51.907 14.488 52.265 14.85 52.425C14.98 52.483 15.118 52.511 15.255 52.511C15.498 52.511 15.739 52.422 15.926 52.252L21.725 47H31.256C41.732 47 50.255 38.479 50.255 28.005V18.995C50.255 8.521 41.732 0 31.256 0ZM48.255 28.005C48.255 37.376 40.63 45 31.256 45H21.339C21.091 45 20.852 45.092 20.668 45.259L16.255 49.256V44.977C16.255 44.553 15.988 44.175 15.588 44.035C8.81001 41.638 4.255 35.196 4.255 28.005V18.995C4.255 9.624 11.881 2 21.254 2H31.256C40.63 2 48.255 9.624 48.255 18.995V28.005V28.005Z" fill="#7066B1"/>
<path d="M39.471 30.493L33.325 26.501C32.653 26.064 31.853 25.916 31.07 26.078C30.286 26.243 29.612 26.706 29.175 27.381L28.886 27.825C26.226 26.946 23.293 25.823 21.537 20.74L22.264 20.108C23.512 19.023 23.643 17.125 22.558 15.875L17.75 10.344C17.388 9.927 16.756 9.884 16.339 10.245L13.32 12.869C10.672 15.171 11.909 18.576 12.316 19.695C12.334 19.745 12.356 19.793 12.382 19.84C12.487 20.028 14.994 24.502 19.043 28.626C23.108 32.767 30.447 36.591 30.672 36.702C31.51 37.246 32.453 37.507 33.386 37.507C35.024 37.507 36.63 36.704 37.588 35.232L39.766 31.878C40.066 31.413 39.934 30.794 39.471 30.493ZM35.91 34.142C35.009 35.53 33.147 35.924 31.677 34.976C31.604 34.938 24.313 31.141 20.47 27.226C16.878 23.567 14.493 19.502 14.168 18.935C13.376 16.714 13.516 15.349 14.632 14.379L16.897 12.411L21.049 17.187C21.418 17.611 21.375 18.231 20.953 18.598L19.726 19.664C19.427 19.924 19.309 20.335 19.426 20.713C21.518 27.511 25.586 28.846 28.556 29.821L28.989 29.964C29.422 30.11 29.896 29.943 30.144 29.561L30.853 28.469C30.999 28.243 31.223 28.09 31.483 28.035C31.744 27.979 32.01 28.031 32.236 28.178L37.544 31.625L35.91 34.142Z" fill="#7066B1"/>
<path d="M28.538 16.247C28.006 16.094 27.453 16.403 27.302 16.935C27.151 17.466 27.459 18.019 27.99 18.17C29.48 18.594 30.667 19.783 31.087 21.274C31.211 21.714 31.612 22.003 32.049 22.003C32.139 22.003 32.23 21.991 32.321 21.966C32.852 21.816 33.162 21.264 33.012 20.732C32.405 18.578 30.69 16.859 28.538 16.247Z" fill="#7066B1"/>
<path d="M36.148 22.219C36.238 22.219 36.329 22.207 36.42 22.182C36.952 22.032 37.261 21.479 37.111 20.948C35.931 16.765 32.602 13.429 28.422 12.239C27.891 12.086 27.338 12.397 27.187 12.928C27.036 13.459 27.344 14.012 27.875 14.163C31.392 15.163 34.193 17.972 35.186 21.491C35.311 21.931 35.711 22.219 36.148 22.219Z" fill="#7066B1"/>
<path d="M27.991 7.582C27.459 7.429 26.906 7.738 26.755 8.271C26.604 8.802 26.912 9.355 27.443 9.506C33.402 11.201 38.149 15.959 39.831 21.922C39.955 22.362 40.356 22.651 40.793 22.651C40.883 22.651 40.974 22.639 41.065 22.614C41.596 22.464 41.906 21.911 41.756 21.38C39.887 14.753 34.613 9.467 27.991 7.582Z" fill="#7066B1"/>
</g>
<defs>
<clipPath id="clip0">
<rect width="52.511" height="52.511" fill="white"/>
</clipPath>
</defs>
</svg>
