<svg width="513" height="513" viewBox="0 0 513 513" fill="none" xmlns="http://www.w3.org/2000/svg">
<g clip-path="url(#clip0)">
<path d="M112.5 208.25C174.356 208.25 224.5 258.395 224.5 320.25C224.5 382.105 174.356 432.25 112.5 432.25C50.644 432.25 0.5 382.105 0.5 320.25L0 304.25C0 180.538 100.288 80.25 224 80.25V144.25C181.263 144.25 141.083 160.893 110.863 191.113C105.046 196.931 99.737 203.121 94.948 209.623C100.667 208.723 106.528 208.25 112.5 208.25ZM400.5 208.25C462.355 208.25 512.5 258.395 512.5 320.25C512.5 382.105 462.355 432.25 400.5 432.25C338.645 432.25 288.5 382.105 288.5 320.25L288 304.25C288 180.538 388.287 80.25 512 80.25V144.25C469.264 144.25 429.082 160.893 398.863 191.113C393.045 196.931 387.736 203.121 382.947 209.623C388.666 208.723 394.527 208.25 400.5 208.25Z" fill="#C7AD9D"/>
</g>
<defs>
<clipPath id="clip0">
<rect width="512.5" height="512.5" fill="white"/>
</clipPath>
</defs>
</svg>
