<svg height="496pt" viewBox="0 0 496 496" width="496pt" xmlns="http://www.w3.org/2000/svg"><path d="m48.640625 400.640625c-3.199219-2.5625-6.242187-5.28125-9.121094-8.160156-19.519531-19.441407-31.519531-46.320313-31.519531-76 0-28.480469 11.359375-55.839844 31.519531-76l200.960938-200.960938c10.078125-10.078125 21.917969-17.917969 34.878906-23.359375 12.960937-5.28125 26.878906-8.160156 41.121094-8.160156 29.679687 0 56.558593 12 76 31.519531 2.878906 2.878907 5.597656 5.921875 8.160156 9.121094 14 17.519531 22.558594 39.4375 23.28125 63.359375.078125 1.121094.078125 2.320312.078125 3.519531 0 12.960938-2.398438 25.679688-6.878906 37.679688-4.082032 10.960937-9.921875 21.199219-17.519532 30.402343v.078126c-2.242187 2.71875-4.5625 5.28125-7.121093 7.839843l-200.960938 200.960938c-2.558593 2.558593-5.199219 4.960937-7.917969 7.121093-8.242187 6.796876-17.28125 12.160157-26.960937 16.238282-1.121094.480468-2.320313.878906-3.441406 1.28125-12 4.480468-24.71875 6.878906-37.679688 6.878906-1.199219 0-2.398437 0-3.519531-.078125-23.921875-.722656-45.839844-9.28125-63.359375-23.28125zm0 0" fill="#ffeaa7"/><path d="m459.679688 107.679688-59.039063-59.039063c14 17.519531 22.558594 39.4375 23.28125 63.359375.078125 1.121094.078125 2.320312.078125 3.519531 0 12.960938-2.398438 25.679688-6.878906 37.679688-4.082032 10.960937-9.921875 21.199219-17.519532 30.402343v.078126c-2.242187 2.71875-213.28125 213.761718-216 215.921874-8.242187 6.796876-17.28125 12.160157-26.960937 16.238282-1.121094.480468-2.320313.878906-3.441406 1.28125-12 4.480468-24.71875 6.878906-37.679688 6.878906-1.199219 0-2.398437 0-3.519531-.078125-23.921875-.722656-45.839844-9.28125-63.359375-23.28125l59.039063 59.039063c9.121093 9.121093 19.761718 16.160156 31.359374 20.960937 11.601563 4.800781 24.160157 7.359375 36.960938 7.359375 13.761719 0 27.199219-2.960938 39.519531-8.480469 10.480469-4.640625 20.082031-11.199219 28.480469-19.519531.0625-.0625 153.734375-157.753906 212-220 12.703125-13.566406 22.6875-22.609375 23.519531-24.480469.402344-.878906.800781-1.679687 1.121094-2.558593 4.800781-11.601563 7.359375-24.160157 7.359375-36.960938 0-25.601562-10.160156-50.160156-28.320312-68.320312zm0 0" fill="#fcd770"/><path d="m63.597656 250.34375 11.3125-11.3125 11.3125 11.3125-11.3125 11.3125zm0 0"/><path d="m108.851562 205.082031 10.742188-10.742187 11.3125 11.3125-10.742188 10.742187zm0 0"/><path d="m86.21875 227.714844 11.320312-11.320313 11.3125 11.316407-11.316406 11.316406zm0 0"/><path d="m74 369.703125-9.855469 12.609375c14.800781 11.566406 32.550781 17.6875 51.335938 17.6875 22.296875 0 43.261719-8.679688 59.023437-24.449219l89.894532-89.894531-11.308594-11.3125-89.898438 89.894531c-12.742187 12.746094-29.6875 19.761719-47.710937 19.761719-15.175781 0-29.519531-4.945312-41.480469-14.296875zm0 0"/><path d="m260.886719 266.546875 16.203125-16.203125 11.3125 11.3125-16.199219 16.203125zm0 0"/><path d="m285.085938 242.34375 15.996093-15.996094 11.316407 11.3125-16 15.996094zm0 0"/><path d="m268.808594 67.761719c12.742187-12.746094 29.6875-19.761719 47.710937-19.761719 10.601563 0 20.761719 2.40625 30.191407 7.144531l7.175781-14.296875c-11.671875-5.871094-24.246094-8.847656-37.367188-8.847656-22.296875 0-43.261719 8.679688-59.023437 24.449219l-25.816406 25.816406 11.3125 11.308594zm0 0"/><path d="m207.589844 106.34375 16.234375-16.234375 11.316406 11.3125-16.238281 16.234375zm0 0"/><path d="m465.367188 102.0625-59.128907-59.125c-21.183593-26.160156-53.511719-42.9375-89.71875-42.9375-30.847656 0-59.847656 12.007812-81.65625 33.824219l-201.039062 201.039062c-21.816407 21.816407-33.824219 50.816407-33.824219 81.65625 0 36.199219 16.777344 68.535157 42.9375 89.71875l59.125 59.128907c19.746094 19.761718 46 30.632812 73.9375 30.632812s54.191406-10.871094 73.945312-30.625l215.429688-215.4375c19.746094-19.753906 30.625-46.007812 30.625-73.9375s-10.878906-54.183594-30.632812-73.9375zm-233.367188 261.25 48.6875 48.6875-12.6875 12.6875-48.6875-48.6875zm11.3125-11.3125 12.6875-12.6875 48.6875 48.6875-12.6875 12.6875zm24-24 12.6875-12.6875 48.6875 48.6875-12.6875 12.6875zm24-24 12.6875-12.6875 48.6875 48.6875-12.6875 12.6875zm24-24 12.6875-12.6875 48.6875 48.6875-12.6875 12.6875zm24-24 12.6875-12.6875 48.6875 48.6875-12.6875 12.6875zm24-24 12.6875-12.6875 48.6875 48.6875-12.6875 12.6875zm24-24 10.863281-10.863281c.617188-.617188 1.136719-1.289063 1.734375-1.914063l48.777344 48.777344-12.6875 12.6875zm22.863281-25.136719c3.632813-5.023437 6.839844-10.289062 9.59375-15.773437l50.09375 50.09375c-2.832031 5.375-6.214843 10.472656-10.152343 15.214844zm16.183594-31.816406c2.167969-6.726563 3.6875-13.679687 4.59375-20.78125l48.894531 48.894531c-.261718 7.511719-1.390625 14.863282-3.464844 21.910156zm27.695313-37.671875c11.351562 11.351562 19.136718 25.265625 23.042968 40.410156l-45.464844-45.464844c-.433593-7.023437-1.488281-13.863281-3.121093-20.496093zm-438.054688 203.144531c0-26.566406 10.34375-51.550781 29.136719-70.34375l201.039062-201.046875c18.792969-18.785156 43.769531-29.128906 70.34375-29.128906 54.855469 0 99.480469 44.625 99.480469 99.480469 0 26.566406-10.34375 51.550781-29.136719 70.34375l-201.039062 201.046875c-18.792969 18.785156-43.769531 29.128906-70.34375 29.128906-54.855469 0-99.480469-44.625-99.480469-99.480469zm114.265625 114.433594c7.101563-.90625 14.054687-2.417969 20.78125-4.59375l50.023437 50.023437c-7.046874 2.074219-14.40625 3.203126-21.917968 3.464844zm36.824219-11.175781c5.484375-2.753906 10.75-5.960938 15.773437-9.59375l49.535157 49.535156c-4.742188 3.9375-9.847657 7.328125-15.214844 10.152344zm-79.265625 8.734375c6.632812 1.640625 13.480469 2.695312 20.503906 3.128906l45.464844 45.464844c-15.144531-3.898438-29.074219-11.691407-40.417969-23.042969zm156.175781 20.175781-48.777344-48.777344c.625-.597656 1.296875-1.117187 1.914063-1.734375l10.863281-10.863281 48.6875 48.6875zm0 0"/></svg>