<svg width="192" height="192" viewBox="0 0 192 192" fill="none" xmlns="http://www.w3.org/2000/svg">
<g clip-path="url(#clip0)">
<path d="M162.929 66.612C160.115 64.858 156.415 65.716 154.662 68.529C152.909 71.342 153.767 75.042 156.579 76.795C163.123 80.876 167.029 87.916 167.029 95.628C167.029 103.34 163.123 110.38 156.579 114.461L58.162 175.826C51.219 180.155 42.803 180.368 35.65 176.399C28.496 172.429 24.225 165.174 24.225 156.993V34.262C24.225 26.081 28.496 18.826 35.65 14.856C42.803 10.887 51.219 11.1 58.162 15.429L115.454 51.152C118.267 52.904 121.967 52.047 123.721 49.235C125.474 46.423 124.616 42.722 121.804 40.969L64.512 5.247C53.816 -1.422 40.851 -1.753 29.827 4.364C18.806 10.48 12.226 21.657 12.226 34.262V156.992C12.226 169.597 18.806 180.774 29.828 186.89C35.078 189.803 40.767 191.254 46.444 191.254C52.685 191.254 58.911 189.5 64.512 186.007L162.929 124.642C173.011 118.355 179.03 107.509 179.03 95.627C179.03 83.745 173.011 72.899 162.929 66.612Z" fill="#00C2B5"/>
</g>
<defs>
<clipPath id="clip0">
<rect width="191.255" height="191.255" fill="white"/>
</clipPath>
</defs>
</svg>
