<svg width="396" height="396" viewBox="0 0 396 396" fill="none" xmlns="http://www.w3.org/2000/svg">
<g clip-path="url(#clip0)">
<path d="M245.619 149.458V149.794L245.93 149.921C292.424 168.893 325.192 214.549 325.193 267.864C325.193 338.192 268.181 395.204 197.852 395.204C127.523 395.204 70.511 338.192 70.511 267.864C70.511 214.55 103.28 168.894 149.774 149.921L150.085 149.794V149.458V39.2497C151.788 39.7042 153.577 39.952 155.424 39.952H240.28C242.127 39.952 243.915 39.705 245.619 39.2499V149.458ZM95.766 274.19H95.2266L95.2674 274.728C99.334 328.351 144.098 370.605 198.763 370.605C253.428 370.605 298.192 328.351 302.259 274.728L302.299 274.19H301.76H95.766Z" fill="#F7F1E6" stroke="black"/>
<path d="M149.727 39.1093L149.727 39.1092C141.609 36.665 135.695 29.14 135.695 20.227C135.695 9.33316 144.528 0.5 155.423 0.5H240.279C251.174 0.5 260.007 9.33316 260.007 20.227C260.007 29.1389 254.093 36.664 245.975 39.1092C244.171 39.6527 242.26 39.952 240.28 39.952H155.422C153.442 39.952 151.532 39.6537 149.727 39.1093Z" fill="#E0DCD3" stroke="black"/>
<path d="M198.763 369.605C144.809 369.605 100.592 328.041 96.3068 275.19H301.219C296.934 328.041 252.717 369.605 198.763 369.605Z" fill="#5A9794" stroke="black"/>
</g>
<defs>
<clipPath id="clip0">
<rect width="395.704" height="395.704" fill="white"/>
</clipPath>
</defs>
</svg>
