<svg width="300" height="262" viewBox="0 0 300 262" fill="none" xmlns="http://www.w3.org/2000/svg">
<path d="M5.29901 125.645L74.425 151.445L101.181 237.492C102.893 243.003 109.632 245.04 114.105 241.383L152.637 209.971C156.676 206.68 162.429 206.516 166.65 209.58L236.148 260.037C240.933 263.515 247.712 260.893 248.912 255.111L299.823 10.22C301.133 3.90401 294.927 -1.36499 288.913 0.961007L5.21801 110.402C-1.78299 113.102 -1.72199 123.014 5.29901 125.645ZM96.869 137.711L231.967 54.504C234.395 53.013 236.893 56.296 234.808 58.23L123.313 161.87C119.394 165.518 116.866 170.4 116.15 175.699L112.352 203.845C111.849 207.603 106.57 207.976 105.533 204.339L90.926 153.014C89.253 147.16 91.691 140.907 96.869 137.711Z" fill="#0088CC"/>
</svg>
